<mxfile host="app.diagrams.net" modified="2024-05-28T12:11:28.423Z" agent="Mozilla/5.0 (Windows NT 10.0; Win64; x64) AppleWebKit/537.36 (KHTML, like Gecko) Chrome/125.0.0.0 Safari/537.36" etag="pIG6UOkz7GXe1EbYbsQc" version="24.4.6" type="device">
  <diagram name="Página-1" id="SNJuSSr600f99d30zxKa">
    <mxGraphModel dx="1035" dy="1720" grid="1" gridSize="10" guides="1" tooltips="1" connect="1" arrows="1" fold="1" page="1" pageScale="1" pageWidth="827" pageHeight="1169" math="0" shadow="0">
      <root>
        <mxCell id="0" />
        <mxCell id="1" parent="0" />
        <mxCell id="kwR_Vr4SHRu3Z8F2p_Ge-4" style="edgeStyle=orthogonalEdgeStyle;rounded=0;orthogonalLoop=1;jettySize=auto;html=1;entryX=0;entryY=0.333;entryDx=0;entryDy=0;entryPerimeter=0;" edge="1" parent="1" source="kwR_Vr4SHRu3Z8F2p_Ge-1" target="kwR_Vr4SHRu3Z8F2p_Ge-3">
          <mxGeometry relative="1" as="geometry" />
        </mxCell>
        <mxCell id="kwR_Vr4SHRu3Z8F2p_Ge-5" value="Fazer login" style="edgeLabel;html=1;align=center;verticalAlign=middle;resizable=0;points=[];" vertex="1" connectable="0" parent="kwR_Vr4SHRu3Z8F2p_Ge-4">
          <mxGeometry x="-0.0856" y="4" relative="1" as="geometry">
            <mxPoint as="offset" />
          </mxGeometry>
        </mxCell>
        <mxCell id="kwR_Vr4SHRu3Z8F2p_Ge-1" value="Usuario" style="shape=umlActor;verticalLabelPosition=bottom;verticalAlign=top;html=1;outlineConnect=0;" vertex="1" parent="1">
          <mxGeometry x="40" y="-1140" width="30" height="60" as="geometry" />
        </mxCell>
        <mxCell id="kwR_Vr4SHRu3Z8F2p_Ge-9" style="edgeStyle=orthogonalEdgeStyle;rounded=0;orthogonalLoop=1;jettySize=auto;html=1;entryX=0;entryY=0.75;entryDx=0;entryDy=0;" edge="1" parent="1" source="kwR_Vr4SHRu3Z8F2p_Ge-2" target="kwR_Vr4SHRu3Z8F2p_Ge-3">
          <mxGeometry relative="1" as="geometry" />
        </mxCell>
        <mxCell id="kwR_Vr4SHRu3Z8F2p_Ge-2" value="Administrador" style="shape=umlActor;verticalLabelPosition=bottom;verticalAlign=top;html=1;outlineConnect=0;" vertex="1" parent="1">
          <mxGeometry x="40" y="-1020" width="30" height="60" as="geometry" />
        </mxCell>
        <mxCell id="kwR_Vr4SHRu3Z8F2p_Ge-16" style="edgeStyle=orthogonalEdgeStyle;rounded=0;orthogonalLoop=1;jettySize=auto;html=1;" edge="1" parent="1" source="kwR_Vr4SHRu3Z8F2p_Ge-3">
          <mxGeometry relative="1" as="geometry">
            <mxPoint x="250" y="-1070" as="targetPoint" />
            <Array as="points">
              <mxPoint x="290" y="-1050" />
              <mxPoint x="290" y="-1070" />
            </Array>
          </mxGeometry>
        </mxCell>
        <mxCell id="kwR_Vr4SHRu3Z8F2p_Ge-17" value="Verificar" style="edgeLabel;html=1;align=center;verticalAlign=middle;resizable=0;points=[];" vertex="1" connectable="0" parent="kwR_Vr4SHRu3Z8F2p_Ge-16">
          <mxGeometry x="0.0685" relative="1" as="geometry">
            <mxPoint y="1" as="offset" />
          </mxGeometry>
        </mxCell>
        <mxCell id="kwR_Vr4SHRu3Z8F2p_Ge-18" style="edgeStyle=orthogonalEdgeStyle;rounded=0;orthogonalLoop=1;jettySize=auto;html=1;exitX=1;exitY=0.75;exitDx=0;exitDy=0;entryX=0;entryY=0.75;entryDx=0;entryDy=0;" edge="1" parent="1" source="kwR_Vr4SHRu3Z8F2p_Ge-3" target="kwR_Vr4SHRu3Z8F2p_Ge-14">
          <mxGeometry relative="1" as="geometry" />
        </mxCell>
        <mxCell id="kwR_Vr4SHRu3Z8F2p_Ge-19" value="Enviar dados" style="edgeLabel;html=1;align=center;verticalAlign=middle;resizable=0;points=[];" vertex="1" connectable="0" parent="kwR_Vr4SHRu3Z8F2p_Ge-18">
          <mxGeometry x="-0.1891" y="-3" relative="1" as="geometry">
            <mxPoint as="offset" />
          </mxGeometry>
        </mxCell>
        <mxCell id="kwR_Vr4SHRu3Z8F2p_Ge-3" value="Login" style="rounded=0;whiteSpace=wrap;html=1;" vertex="1" parent="1">
          <mxGeometry x="120" y="-1080" width="120" height="60" as="geometry" />
        </mxCell>
        <mxCell id="kwR_Vr4SHRu3Z8F2p_Ge-23" style="edgeStyle=orthogonalEdgeStyle;rounded=0;orthogonalLoop=1;jettySize=auto;html=1;" edge="1" parent="1" source="kwR_Vr4SHRu3Z8F2p_Ge-14" target="kwR_Vr4SHRu3Z8F2p_Ge-22">
          <mxGeometry relative="1" as="geometry" />
        </mxCell>
        <mxCell id="kwR_Vr4SHRu3Z8F2p_Ge-24" value="Visualizar menu" style="edgeLabel;html=1;align=center;verticalAlign=middle;resizable=0;points=[];" vertex="1" connectable="0" parent="kwR_Vr4SHRu3Z8F2p_Ge-23">
          <mxGeometry x="-0.1691" y="-1" relative="1" as="geometry">
            <mxPoint as="offset" />
          </mxGeometry>
        </mxCell>
        <mxCell id="kwR_Vr4SHRu3Z8F2p_Ge-25" style="edgeStyle=orthogonalEdgeStyle;rounded=0;orthogonalLoop=1;jettySize=auto;html=1;entryX=0;entryY=0.5;entryDx=0;entryDy=0;" edge="1" parent="1" source="kwR_Vr4SHRu3Z8F2p_Ge-14" target="kwR_Vr4SHRu3Z8F2p_Ge-20">
          <mxGeometry relative="1" as="geometry">
            <Array as="points">
              <mxPoint x="380" y="-950" />
            </Array>
          </mxGeometry>
        </mxCell>
        <mxCell id="kwR_Vr4SHRu3Z8F2p_Ge-26" value="Avaliação&lt;div&gt;&lt;br&gt;&lt;/div&gt;" style="edgeLabel;html=1;align=center;verticalAlign=middle;resizable=0;points=[];" vertex="1" connectable="0" parent="kwR_Vr4SHRu3Z8F2p_Ge-25">
          <mxGeometry x="0.3243" y="-2" relative="1" as="geometry">
            <mxPoint as="offset" />
          </mxGeometry>
        </mxCell>
        <mxCell id="kwR_Vr4SHRu3Z8F2p_Ge-14" value="Usuario" style="rounded=0;whiteSpace=wrap;html=1;" vertex="1" parent="1">
          <mxGeometry x="320" y="-1080" width="120" height="60" as="geometry" />
        </mxCell>
        <mxCell id="kwR_Vr4SHRu3Z8F2p_Ge-20" value="Avaliar" style="rounded=0;whiteSpace=wrap;html=1;" vertex="1" parent="1">
          <mxGeometry x="640" y="-980" width="120" height="60" as="geometry" />
        </mxCell>
        <mxCell id="kwR_Vr4SHRu3Z8F2p_Ge-31" style="edgeStyle=orthogonalEdgeStyle;rounded=0;orthogonalLoop=1;jettySize=auto;html=1;entryX=0.5;entryY=0;entryDx=0;entryDy=0;" edge="1" parent="1" source="kwR_Vr4SHRu3Z8F2p_Ge-22" target="kwR_Vr4SHRu3Z8F2p_Ge-30">
          <mxGeometry relative="1" as="geometry">
            <mxPoint x="430" y="-890" as="targetPoint" />
            <Array as="points">
              <mxPoint x="600" y="-980" />
              <mxPoint x="431" y="-980" />
              <mxPoint x="431" y="-890" />
            </Array>
          </mxGeometry>
        </mxCell>
        <mxCell id="kwR_Vr4SHRu3Z8F2p_Ge-22" value="4Lines" style="rounded=0;whiteSpace=wrap;html=1;" vertex="1" parent="1">
          <mxGeometry x="540" y="-1080" width="120" height="60" as="geometry" />
        </mxCell>
        <mxCell id="kwR_Vr4SHRu3Z8F2p_Ge-27" style="edgeStyle=orthogonalEdgeStyle;rounded=0;orthogonalLoop=1;jettySize=auto;html=1;entryX=0.404;entryY=0.98;entryDx=0;entryDy=0;entryPerimeter=0;dashed=1;" edge="1" parent="1" source="kwR_Vr4SHRu3Z8F2p_Ge-20" target="kwR_Vr4SHRu3Z8F2p_Ge-22">
          <mxGeometry relative="1" as="geometry" />
        </mxCell>
        <mxCell id="kwR_Vr4SHRu3Z8F2p_Ge-28" value="Feedback" style="edgeLabel;html=1;align=center;verticalAlign=middle;resizable=0;points=[];" vertex="1" connectable="0" parent="kwR_Vr4SHRu3Z8F2p_Ge-27">
          <mxGeometry x="0.137" y="4" relative="1" as="geometry">
            <mxPoint as="offset" />
          </mxGeometry>
        </mxCell>
        <mxCell id="kwR_Vr4SHRu3Z8F2p_Ge-30" value="" style="rounded=0;whiteSpace=wrap;html=1;" vertex="1" parent="1">
          <mxGeometry x="370" y="-860" width="120" height="20" as="geometry" />
        </mxCell>
        <mxCell id="kwR_Vr4SHRu3Z8F2p_Ge-32" value="Noticias" style="rounded=0;whiteSpace=wrap;html=1;" vertex="1" parent="1">
          <mxGeometry x="130" y="-790" width="120" height="60" as="geometry" />
        </mxCell>
        <mxCell id="kwR_Vr4SHRu3Z8F2p_Ge-33" value="Futebol" style="rounded=0;whiteSpace=wrap;html=1;" vertex="1" parent="1">
          <mxGeometry x="270" y="-790" width="120" height="60" as="geometry" />
        </mxCell>
        <mxCell id="kwR_Vr4SHRu3Z8F2p_Ge-34" value="Basket" style="rounded=0;whiteSpace=wrap;html=1;" vertex="1" parent="1">
          <mxGeometry x="414" y="-790" width="120" height="60" as="geometry" />
        </mxCell>
        <mxCell id="kwR_Vr4SHRu3Z8F2p_Ge-35" value="Perfil" style="rounded=0;whiteSpace=wrap;html=1;" vertex="1" parent="1">
          <mxGeometry x="560" y="-790" width="120" height="60" as="geometry" />
        </mxCell>
        <mxCell id="kwR_Vr4SHRu3Z8F2p_Ge-36" value="Cartões" style="rounded=0;whiteSpace=wrap;html=1;" vertex="1" parent="1">
          <mxGeometry x="700" y="-790" width="120" height="60" as="geometry" />
        </mxCell>
        <mxCell id="kwR_Vr4SHRu3Z8F2p_Ge-37" value="" style="endArrow=classic;html=1;rounded=0;exitX=1;exitY=1;exitDx=0;exitDy=0;entryX=0.5;entryY=0;entryDx=0;entryDy=0;" edge="1" parent="1" source="kwR_Vr4SHRu3Z8F2p_Ge-30" target="kwR_Vr4SHRu3Z8F2p_Ge-36">
          <mxGeometry width="50" height="50" relative="1" as="geometry">
            <mxPoint x="480" y="-860" as="sourcePoint" />
            <mxPoint x="530" y="-910" as="targetPoint" />
            <Array as="points">
              <mxPoint x="760" y="-840" />
            </Array>
          </mxGeometry>
        </mxCell>
        <mxCell id="kwR_Vr4SHRu3Z8F2p_Ge-38" value="" style="endArrow=classic;html=1;rounded=0;exitX=0.75;exitY=1;exitDx=0;exitDy=0;entryX=0.5;entryY=0;entryDx=0;entryDy=0;" edge="1" parent="1" source="kwR_Vr4SHRu3Z8F2p_Ge-30" target="kwR_Vr4SHRu3Z8F2p_Ge-35">
          <mxGeometry width="50" height="50" relative="1" as="geometry">
            <mxPoint x="490" y="-850" as="sourcePoint" />
            <mxPoint x="540" y="-900" as="targetPoint" />
            <Array as="points">
              <mxPoint x="620" y="-830" />
            </Array>
          </mxGeometry>
        </mxCell>
        <mxCell id="kwR_Vr4SHRu3Z8F2p_Ge-39" value="" style="endArrow=classic;html=1;rounded=0;exitX=0.5;exitY=1;exitDx=0;exitDy=0;entryX=0.5;entryY=0;entryDx=0;entryDy=0;" edge="1" parent="1" source="kwR_Vr4SHRu3Z8F2p_Ge-30" target="kwR_Vr4SHRu3Z8F2p_Ge-34">
          <mxGeometry width="50" height="50" relative="1" as="geometry">
            <mxPoint x="500" y="-840" as="sourcePoint" />
            <mxPoint x="550" y="-890" as="targetPoint" />
            <Array as="points">
              <mxPoint x="430" y="-810" />
            </Array>
          </mxGeometry>
        </mxCell>
        <mxCell id="kwR_Vr4SHRu3Z8F2p_Ge-40" value="" style="endArrow=classic;html=1;rounded=0;exitX=0.25;exitY=1;exitDx=0;exitDy=0;entryX=0.5;entryY=0;entryDx=0;entryDy=0;" edge="1" parent="1" source="kwR_Vr4SHRu3Z8F2p_Ge-30" target="kwR_Vr4SHRu3Z8F2p_Ge-33">
          <mxGeometry width="50" height="50" relative="1" as="geometry">
            <mxPoint x="510" y="-830" as="sourcePoint" />
            <mxPoint x="560" y="-880" as="targetPoint" />
            <Array as="points">
              <mxPoint x="330" y="-840" />
            </Array>
          </mxGeometry>
        </mxCell>
        <mxCell id="kwR_Vr4SHRu3Z8F2p_Ge-41" value="" style="endArrow=classic;html=1;rounded=0;exitX=0;exitY=0.75;exitDx=0;exitDy=0;entryX=0.5;entryY=0;entryDx=0;entryDy=0;" edge="1" parent="1" source="kwR_Vr4SHRu3Z8F2p_Ge-30" target="kwR_Vr4SHRu3Z8F2p_Ge-32">
          <mxGeometry width="50" height="50" relative="1" as="geometry">
            <mxPoint x="520" y="-820" as="sourcePoint" />
            <mxPoint x="570" y="-870" as="targetPoint" />
            <Array as="points">
              <mxPoint x="190" y="-845" />
            </Array>
          </mxGeometry>
        </mxCell>
      </root>
    </mxGraphModel>
  </diagram>
</mxfile>
